<svg width="26" height="28" viewBox="0 0 26 28" fill="none" xmlns="http://www.w3.org/2000/svg">
<path fill-rule="evenodd" clip-rule="evenodd" d="M9.24997 0.25H16.75C18.1307 0.25 19.25 1.36929 19.25 2.75V4H23C24.3807 4 25.5 5.11929 25.5 6.5V9C25.5 10.3807 24.3807 11.5 23 11.5H22.8998L21.75 25.25C21.75 26.6307 20.6307 27.75 19.25 27.75H6.74997C5.36926 27.75 4.24997 26.6307 4.25428 25.3537L3.09981 11.5H2.99997C1.61926 11.5 0.499969 10.3807 0.499969 9V6.5C0.499969 5.11929 1.61926 4 2.99997 4H6.74997V2.75C6.74997 1.36929 7.86926 0.25 9.24997 0.25ZM2.99997 6.5H6.74997H19.25H23V9H2.99997V6.5ZM5.60808 11.5H20.3915L19.2543 25.1462L19.25 25.25H6.74997L5.60808 11.5ZM16.75 2.75V4H9.24997V2.75H16.75Z" fill="black"/>
</svg>
