<svg width="24" height="30" viewBox="0 0 24 30" fill="none" xmlns="http://www.w3.org/2000/svg">
<path d="M2.625 29.0625H17.625C18.2464 29.0618 18.8421 28.8146 19.2815 28.3753C19.7209 27.9359 19.968 27.3401 19.9688 26.7188V24.8438H21.375C21.9964 24.8431 22.5921 24.5959 23.0315 24.1565C23.4709 23.7171 23.718 23.1214 23.7188 22.5V7.85219C23.7184 7.52869 23.6512 7.20876 23.5214 6.91242C23.3917 6.61608 23.2022 6.34971 22.9647 6.13L18.0129 1.55906C17.5803 1.15887 17.0125 0.936862 16.4231 0.937501H8.71875C8.09736 0.938203 7.50163 1.18536 7.06224 1.62474C6.62286 2.06413 6.3757 2.65987 6.375 3.28125V5.15625H2.625C2.00361 5.15695 1.40788 5.40411 0.968493 5.84349C0.529106 6.28288 0.281951 6.87861 0.28125 7.5V26.7188C0.281951 27.3401 0.529106 27.9359 0.968493 28.3753C1.40788 28.8146 2.00361 29.0618 2.625 29.0625ZM7.3125 3.28125C7.31292 2.90842 7.46121 2.55098 7.72484 2.28734C7.98847 2.02371 8.34592 1.87542 8.71875 1.875H16.4231C16.5119 1.87502 16.6004 1.88339 16.6875 1.90002V5.15625C16.6882 5.77764 16.9354 6.37337 17.3747 6.81276C17.8141 7.25214 18.4099 7.4993 19.0312 7.5H20.4375V6.5625H19.0312C18.6584 6.56208 18.301 6.41379 18.0373 6.15016C17.7737 5.88653 17.6254 5.52908 17.625 5.15625V2.47688L22.3288 6.81888C22.4713 6.9507 22.585 7.11052 22.6629 7.28833C22.7407 7.46613 22.781 7.65809 22.7812 7.85219V22.5C22.7808 22.8728 22.6325 23.2303 22.3689 23.4939C22.1053 23.7575 21.7478 23.9058 21.375 23.9062H19.9688V12.0709C19.9684 11.7474 19.9012 11.4275 19.7714 11.1312C19.6417 10.8348 19.4522 10.5685 19.2147 10.3488L14.2629 5.77781C13.8303 5.37762 13.2625 5.15561 12.6731 5.15625H7.3125V3.28125ZM1.21875 7.5C1.21917 7.12717 1.36746 6.76973 1.63109 6.50609C1.89472 6.24246 2.25217 6.09417 2.625 6.09375H12.6731C12.7619 6.09377 12.8504 6.10214 12.9375 6.11877V9.375C12.9382 9.99639 13.1854 10.5921 13.6247 11.0315C14.0641 11.4709 14.6599 11.7181 15.2812 11.7188H16.6875V10.7813H15.2812C14.9084 10.7808 14.551 10.6325 14.2873 10.3689C14.0237 10.1053 13.8754 9.74783 13.875 9.375V6.69563L18.5788 11.0376C18.7213 11.1695 18.835 11.3293 18.9129 11.5071C18.9907 11.6849 19.031 11.8768 19.0312 12.0709V26.7188C19.0308 27.0916 18.8825 27.449 18.6189 27.7127C18.3553 27.9763 17.9978 28.1246 17.625 28.125H2.625C2.25217 28.1246 1.89472 27.9763 1.63109 27.7127C1.36746 27.449 1.21917 27.0916 1.21875 26.7188V7.5Z" fill="black"/>
</svg>
