<svg width="26" height="26" viewBox="0 0 26 26" fill="none" xmlns="http://www.w3.org/2000/svg">
<path fill-rule="evenodd" clip-rule="evenodd" d="M25.5 23V14.25H23V23H2.99997V3H11.75V0.5H2.99997C1.61926 0.5 0.499969 1.61929 0.499969 3V23C0.499969 24.3808 1.61926 25.5 2.99997 25.5H23C24.3807 25.5 25.5 24.3808 25.5 23ZM21.9726 1.40427C21.3996 0.826775 20.6151 0.5 19.7967 0.5C18.9792 0.5 18.1955 0.826038 17.6192 1.40579L7.15809 11.8668C6.22331 12.6904 5.61052 13.916 5.50403 15.2341L5.49997 19.2529V20.5029H10.6682C12.0861 20.4056 13.3237 19.7869 14.1968 18.7798L24.5987 8.3823C25.1758 7.8052 25.5001 7.02249 25.5001 6.20635C25.5001 5.39021 25.1758 4.6075 24.5987 4.0304L21.9726 1.40427ZM10.58 18.006C11.2477 17.9588 11.8693 17.648 12.3685 17.077L19.9458 9.49965L16.503 6.05659L8.87009 13.687C8.36366 14.1349 8.05036 14.7615 7.99997 15.3348V18.0036L10.58 18.006ZM18.2711 4.2891L21.7136 7.73189L22.831 6.61453C22.9392 6.50628 23.0001 6.35945 23.0001 6.20635C23.0001 6.05325 22.9392 5.90643 22.831 5.79818L20.2013 3.16858C20.0943 3.06069 19.9486 3 19.7967 3C19.6447 3 19.499 3.06069 19.392 3.16858L18.2711 4.2891Z" fill="black"/>
</svg>
