<svg width="30" height="30" viewBox="0 0 30 30" fill="none" xmlns="http://www.w3.org/2000/svg">
<path fill-rule="evenodd" clip-rule="evenodd" d="M26.25 6.25C27.6308 6.25 28.75 7.36929 28.75 8.75V23.75C28.75 25.1308 27.6308 26.25 26.25 26.25H3.75C2.36929 26.25 1.25 25.1308 1.25 23.75V6.25C1.25 4.86929 2.36929 3.75 3.75 3.75H11.25C12.65 3.75 13.5411 4.34431 14.4362 5.47356C14.461 5.50481 14.5214 5.5826 14.5883 5.66875L14.5884 5.66894C14.6826 5.79045 14.7898 5.92854 14.8281 5.97602C14.8669 6.02406 14.8995 6.06379 14.9265 6.09662V6.09665C15.0365 6.23035 15.0524 6.24973 15.0022 6.25H26.25ZM26.25 11.25V8.75L14.9932 8.74999C14.0956 8.74517 13.5109 8.32489 12.8823 7.54568C12.8254 7.47508 12.687 7.29671 12.5865 7.1672V7.16719L12.5864 7.16696C12.5339 7.0993 12.4917 7.045 12.477 7.02645C12.0088 6.43571 11.7303 6.25 11.25 6.25H3.75V11.25H26.25ZM26.25 13.75H3.75V23.75H26.25V13.75Z" fill="#E4E4E4"/>
</svg>
