<svg width="28" height="22" viewBox="0 0 28 22" fill="none" xmlns="http://www.w3.org/2000/svg">
<path fill-rule="evenodd" clip-rule="evenodd" d="M10.25 0H25.25C26.6308 0 27.75 1.11929 27.75 2.5V18.75C27.75 20.1308 26.6308 21.25 25.25 21.25H10.25H7.75H2.75C1.36929 21.25 0.25 20.1308 0.25 18.75V2.5C0.25 1.11929 1.36929 0 2.75 0H7.75H10.25ZM7.75 2.5H2.75V6.25H7.75V2.5ZM10.25 6.25V2.5H25.25V6.25H10.25ZM7.75 8.75H2.75V12.5H7.75V8.75ZM10.25 12.5V8.75H25.25V12.5H10.25ZM7.75 15H2.75V18.75H7.75V15ZM10.25 18.75V15H25.25V18.75H10.25Z" fill="black"/>
</svg>
