<?xml version="1.0" encoding="UTF-8"?>
<svg width="177px" height="38px" viewBox="0 0 177 38" version="1.1" xmlns="http://www.w3.org/2000/svg" xmlns:xlink="http://www.w3.org/1999/xlink">
    <!-- Generator: Sketch 52.2 (67145) - http://www.bohemiancoding.com/sketch -->
    <title>Group 19</title>
    <desc>Created with Sketch.</desc>
    <g id="Symbols" stroke="none" stroke-width="1" fill="none" fill-rule="evenodd">
        <g id="Header-/-Defolt" transform="translate(0.000000, -21.000000)" fill="#FFFFFF">
            <g id="Group-19" transform="translate(0.000000, 21.000000)">
                <path d="M116.004217,24.5794135 C115.834524,24.0553149 115.657118,23.5202553 115.46185,22.969769 C114.395384,19.9116475 114.069396,18.5524823 113.414577,16.763808 C113.201446,16.1706956 112.995217,15.6283287 112.799948,15.1326475 C112.608334,14.64062 112.438641,14.2066452 112.290464,13.8307232 C112.14513,13.4543952 112.026182,13.1616956 111.936058,12.9481589 C111.859737,13.1649433 111.750939,13.4653562 111.602763,13.8380305 C111.457834,14.2139525 111.292201,14.6479273 111.107081,15.1436085 C110.922368,15.63523 110.713297,16.178003 110.48474,16.7711154 C110.16687,17.5818241 109.280653,20.569714 108.441526,22.9738287 C108.253565,23.5271567 108.076159,24.0585626 107.910526,24.5794135 L104.394478,24.5794135 C104.962421,22.95962 105.497481,21.4616154 106.004123,20.0878356 C106.514013,18.7132438 107.009694,17.4182209 107.498068,16.2031727 C107.982382,14.9881245 108.459795,13.8343768 108.93396,12.7419296 C109.404065,11.6494823 109.895687,10.5826108 110.401517,9.54131491 L113.610657,9.54131491 C114.10512,10.5826108 114.593494,11.6494823 115.070907,12.7419296 C115.55238,13.8343768 116.033446,14.9881245 116.521008,16.2031727 C117.009788,17.4182209 117.505063,18.7132438 118.014953,20.0878356 C118.524843,21.4616154 119.059903,22.95962 119.628657,24.5794135 L116.004217,24.5794135 Z M99.0560608,9.54131491 L102.441795,9.54131491 L102.441795,24.5794135 L99.0560608,24.5794135 L99.0560608,18.1997002 L93.3709507,18.1997002 L93.3709507,24.5794135 L89.9852167,24.5794135 L89.9852167,9.54131491 L93.3709507,9.54131491 L93.3709507,15.2917851 L99.0560608,15.2917851 L99.0560608,9.54131491 Z M80.7410264,12.2535557 C80.4950126,12.2535557 80.2530585,12.2608631 80.0143521,12.2754778 C79.7756456,12.2900924 79.5694163,12.3043011 79.395664,12.3189158 L79.395664,16.6586635 L80.4588819,16.6586635 C81.6308979,16.6586635 82.5134622,16.4995259 83.1065745,16.1812507 C83.6996869,15.8633814 83.9964461,15.2698631 83.9964461,14.4023195 C83.9964461,13.9825534 83.920125,13.6354548 83.7682947,13.3606177 C83.6164644,13.0857805 83.39968,12.8649365 83.1175356,12.6984915 C82.8349851,12.5320466 82.4915401,12.416347 82.0863888,12.3513929 C81.6816433,12.2864388 81.2330539,12.2535557 80.7410264,12.2535557 Z M80.524242,9.36756261 C82.7663773,9.36756261 84.4880677,9.76175298 85.6889071,10.5501337 C86.8897466,11.3385144 87.4901663,12.6298837 87.4901663,14.4238356 C87.4901663,16.2319961 86.8824392,17.5375741 85.6669851,18.3405695 C84.4519369,19.1431589 82.7156319,19.5454686 80.4588819,19.5454686 L79.395664,19.5454686 L79.395664,24.5794135 L76.010336,24.5794135 L76.010336,9.75809931 C76.7483773,9.61357638 77.5294507,9.51208555 78.3539622,9.45443876 C79.1788796,9.39638601 79.9019002,9.36756261 80.524242,9.36756261 Z M73.8404622,21.6719044 L73.8404622,24.5794135 L63.7932764,24.5794135 L63.7932764,9.54131491 L67.1786044,9.54131491 L67.1786044,21.6719044 L73.8404622,21.6719044 Z M58.2380745,24.5794135 C58.0679759,24.0553149 57.89057,23.5202553 57.6953016,22.969769 C56.628836,19.9116475 56.351969,18.6860443 55.6484346,16.763808 C55.4348979,16.1706956 55.2286686,15.6283287 55.0338062,15.1326475 C54.8417856,14.64062 54.6716869,14.2066452 54.5235103,13.8307232 C54.3789874,13.4543952 54.2596342,13.1616956 54.1691044,12.9481589 C54.0931892,13.1649433 53.984797,13.4653562 53.8362144,13.8380305 C53.6916915,14.2139525 53.5252466,14.6479273 53.3409392,15.1436085 C53.1562259,15.63523 52.9467489,16.178003 52.7185975,16.7711154 C52.6702878,16.8945282 51.4901525,20.636292 50.6753842,22.9738287 C50.4870172,23.5271567 50.3100172,24.0585626 50.1435722,24.5794135 L46.62793,24.5794135 C47.1958727,22.95962 47.7313383,21.4616154 48.2375745,20.0878356 C48.7474644,18.7132438 49.2431456,17.4182209 49.7311135,16.2031727 C50.2158337,14.9881245 50.6936525,13.8343768 51.1674117,12.7419296 C51.6375172,11.6494823 52.1291388,10.5826108 52.635375,9.54131491 L55.843703,9.54131491 C56.3389782,10.5826108 56.8273521,11.6494823 57.3047649,12.7419296 C57.7858314,13.8343768 58.2668979,14.9881245 58.7548658,16.2031727 C59.2432397,17.4182209 59.7389209,18.7132438 60.2488108,20.0878356 C60.7587007,21.4616154 61.2937603,22.95962 61.861703,24.5794135 L58.2380745,24.5794135 Z" id="Fill-1"></path>
                <path d="M126.767806,24.8394736 C129.00304,24.8394736 130.32648,23.950008 131.454652,22.6915218 L129.870583,21.129375 C129.045666,21.9754025 128.134684,22.5616135 126.897714,22.5616135 C124.880077,22.5616135 123.469354,20.9121846 123.469354,18.872625 L123.469354,18.8291869 C123.469354,16.8326594 124.858561,15.1832305 126.767806,15.1832305 C128.091246,15.1832305 128.938086,15.7694415 129.740269,16.615875 L131.368182,14.8580539 C130.304964,13.6860378 128.959196,12.8834484 126.789322,12.8834484 C123.360556,12.8834484 120.843989,15.6176112 120.843989,18.872625 L120.843989,18.9156571 C120.843989,22.1706709 123.360556,24.8394736 126.767806,24.8394736" id="Fill-3"></path>
                <path d="M140.1527,20.4349342 C140.1527,21.8667667 138.850776,22.8439204 137.115283,22.8439204 C135.878313,22.8439204 134.901159,22.2357874 134.901159,21.1510534 L134.901159,21.1072094 C134.901159,20.0005534 135.878313,19.3278722 137.527336,19.3278722 C138.547115,19.3278722 139.480425,19.5231406 140.1527,19.783769 L140.1527,20.4349342 Z M142.691595,24.5794135 L142.691595,17.7876475 C142.691595,14.7279021 141.042166,12.9485649 137.65765,12.9485649 C135.791031,12.9485649 134.554872,13.3391016 133.295574,13.9033906 L134.011693,16.0079044 C135.053395,15.5739296 136.008221,15.2921911 137.288629,15.2921911 C139.11181,15.2921911 140.110074,16.1601406 140.110074,17.7442094 L140.110074,17.9609938 C139.220203,17.6788493 138.329925,17.483581 136.941531,17.483581 C134.272728,17.483581 132.29731,18.6990351 132.29731,21.2375236 L132.29731,21.2809617 C132.29731,23.5811498 134.207368,24.81812 136.376836,24.81812 C138.113547,24.81812 139.306673,24.1020007 140.087746,23.1686911 L140.087746,24.5794135 L142.691595,24.5794135 Z" id="Fill-5"></path>
                <path d="M145.032176,24.5794135 L147.657541,24.5794135 L147.657541,18.1347461 C147.657541,16.3554089 148.655805,15.270269 150.109965,15.270269 C151.563314,15.270269 152.431669,16.2685328 152.431669,18.04787 L152.431669,24.5794135 L155.056628,24.5794135 L155.056628,18.1128241 C155.056628,16.2685328 156.07722,15.270269 157.509052,15.270269 C158.984729,15.270269 159.830756,16.2470167 159.830756,18.069386 L159.830756,24.5794135 L162.456933,24.5794135 L162.456933,17.2667966 C162.456933,14.4672736 160.937818,12.8832048 158.442362,12.8832048 C156.706057,12.8832048 155.491415,13.6862002 154.558105,14.9016544 C153.950784,13.6862002 152.800284,12.8832048 151.150855,12.8832048 C149.393846,12.8832048 148.395582,13.8380305 147.657541,14.8582163 L147.657541,13.1219112 L145.032176,13.1219112 L145.032176,24.5794135 Z" id="Fill-7"></path>
                <path d="M170.764079,22.5400569 C168.984742,22.5400569 167.423001,21.0858963 167.423001,18.8725844 L167.423001,18.8291463 C167.423001,16.6373505 168.984742,15.1616739 170.764079,15.1616739 C172.543416,15.1616739 174.041015,16.6158344 174.041015,18.8291463 L174.041015,18.8725844 C174.041015,21.1293344 172.565338,22.5400569 170.764079,22.5400569 Z M164.861778,28.0514147 L167.487955,28.0514147 L167.487955,22.8002794 C168.290139,23.8634972 169.484483,24.817917 171.372212,24.817917 C174.105969,24.817917 176.709817,22.6699651 176.709817,18.8725844 L176.709817,18.8291463 C176.709817,15.0317656 174.084859,12.8834078 171.372212,12.8834078 C169.527109,12.8834078 168.333983,13.8378275 167.487955,15.0317656 L167.487955,13.1221142 L164.861778,13.1221142 L164.861778,28.0514147 Z" id="Fill-9"></path>
                <path d="M24.0366812,17.2678927 C24.0366812,17.2678927 17.0504587,28.5987344 11.3210986,28.5987344 C1.3197867,28.5987344 10.642328,7.01650734 17.9293693,7.01650734 C23.0298922,7.01650734 24.0366812,17.2678927 24.0366812,17.2678927" id="Fill-11"></path>
                <path d="M32.3442736,31.5196404 C28.9317461,35.1501702 24.0857622,37.4186931 18.7095901,37.4186931 C11.8366314,37.4186931 5.83081032,33.7126541 2.57823234,28.1903353 C4.2325328,30.4422138 7.04220482,31.9454959 11.0389135,31.9454959 C20.8762163,31.9454959 26.477292,24.2947115 26.477292,24.2947115 C26.477292,24.2947115 26.9603883,30.3407229 32.3442736,31.5196404" id="Fill-13"></path>
                <path d="M35.2904711,10.0376862 C36.6492303,12.6297619 37.4189367,15.5794913 37.4189367,18.7094683 C37.4189367,22.1707115 36.4779138,25.4111106 34.8398518,28.1919592 C33.7681087,27.6065601 32.7856775,26.5965234 32.215705,24.8870119 C30.4396156,19.5587436 30.0791202,18.4882183 30.0791202,18.4882183 L35.2904711,10.0376862 Z" id="Fill-15"></path>
                <path d="M18.7094278,-1.42108547e-14 C23.5947901,-1.42108547e-14 28.04293,1.87311468 31.3746709,4.94016743 L27.8302053,10.6597844 C26.5469553,7.32479587 23.9439186,3.98290596 18.8718131,3.98290596 C8.48848968,3.98290596 0.791831422,15.3206491 0.791831422,22.4274427 C0.791831422,23.3656239 0.907530963,24.282695 1.13974197,25.1551101 C0.402106651,23.1459977 0.000202981651,20.974906 0.000202981651,18.7092248 C0.000202981651,8.37664679 8.37644381,-1.42108547e-14 18.7094278,-1.42108547e-14" id="Fill-17"></path>
            </g>
        </g>
    </g>
</svg>